<?xml version="1.0" encoding="UTF-8" standalone="no"?>
<svg
   version="1.1"
   width="24.5"
   height="32"
   id="svg19"
   sodipodi:docname="Chess_pdt45.svg"
   inkscape:version="1.2.2 (732a01da63, 2022-12-09)"
   xmlns:inkscape="http://www.inkscape.org/namespaces/inkscape"
   xmlns:sodipodi="http://sodipodi.sourceforge.net/DTD/sodipodi-0.dtd"
   xmlns="http://www.w3.org/2000/svg"
   xmlns:svg="http://www.w3.org/2000/svg">
  <defs
     id="defs23" />
  <sodipodi:namedview
     id="namedview21"
     pagecolor="#ffffff"
     bordercolor="#000000"
     borderopacity="0.25"
     inkscape:showpageshadow="2"
     inkscape:pageopacity="0.0"
     inkscape:pagecheckerboard="0"
     inkscape:deskcolor="#d1d1d1"
     showgrid="false"
     inkscape:zoom="22.822222"
     inkscape:cx="5.2580332"
     inkscape:cy="14.393866"
     inkscape:window-width="1350"
     inkscape:window-height="1230"
     inkscape:window-x="163"
     inkscape:window-y="206"
     inkscape:window-maximized="0"
     inkscape:current-layer="svg19" />
  <g
     id="path17"
     inkscape:label="path17">
    <path
       id="path168"
       style="color:#000000;fill:#4c566a;stroke-linecap:round;-inkscape-stroke:none"
       d="M 12.25,0 C 9.6350252,0 7.5,2.1350252 7.5,4.75 7.5,5.5587439 7.852054,6.2480952 8.2089844,6.9179687 6.3321259,8.2236494 5,10.290905 5,12.75 5,14.647128 5.8517323,16.281076 7.0566406,17.572266 3.7915702,19.203968 0,23.705432 0,31.25 V 32 H 24.5 V 31.25 C 24.5,23.705432 20.70843,19.203968 17.443359,17.572266 18.648268,16.281076 19.5,14.647128 19.5,12.75 19.5,10.290905 18.167874,8.2236494 16.291016,6.9179687 16.647946,6.2480952 17,5.5587439 17,4.75 17,2.1350252 14.864975,0 12.25,0 Z m 0,1.5 c 1.805021,0 3.25,1.4449792 3.25,3.25 0,0.7270779 -0.233657,1.3890447 -0.634766,1.9375 L 14.371094,7.3632812 15.095703,7.78125 C 16.823989,8.7739066 18,10.615936 18,12.75 c 0,1.798471 -0.830355,3.392895 -2.132812,4.447266 l -1.041016,0.84375 1.263672,0.445312 c 2.494984,0.881561 6.50607,4.897211 6.804687,12.013672 H 1.6054687 C 1.9040865,23.383539 5.9151723,19.367889 8.4101563,18.486328 L 9.6738281,18.041016 8.6328125,17.197266 C 7.3303549,16.142895 6.5,14.548471 6.5,12.75 6.5,10.615936 7.6760109,8.7739066 9.4042969,7.78125 L 10.128906,7.3632812 9.6347656,6.6875 C 9.2336565,6.1390447 9,5.4770779 9,4.75 9,2.9449792 10.444979,1.5 12.25,1.5 Z m 0,-0.75 c -2.21,0 -4,1.79 -4,4 0,0.89 0.29,1.71 0.78,2.38 -1.95,1.12 -3.28,3.21 -3.28,5.62 0,2.03 0.94,3.84 2.41,5.03 -3,1.06 -7.41,5.55 -7.41,13.47 h 23 c 0,-7.92 -4.41,-12.41 -7.41,-13.47 1.47,-1.19 2.41,-3 2.41,-5.03 0,-2.41 -1.33,-4.5 -3.28,-5.62 0.49,-0.67 0.78,-1.49 0.78,-2.38 0,-2.21 -1.79,-4 -4,-4 z" />
  </g>
</svg>
